<?xml version="1.0" encoding="iso-8859-1"?>
<!-- Generator: Adobe Illustrator 16.0.0, SVG Export Plug-In . SVG Version: 6.00 Build 0)  -->
<!DOCTYPE svg PUBLIC "-//W3C//DTD SVG 1.1//EN" "http://www.w3.org/Graphics/SVG/1.1/DTD/svg11.dtd">
<svg xmlns="http://www.w3.org/2000/svg" xmlns:xlink="http://www.w3.org/1999/xlink" version="1.1" id="Capa_1" x="0px" y="0px" width="512px" height="512px" viewBox="0 0 70.072 70.072" style="enable-background:new 0 0 70.072 70.072;" xml:space="preserve">
<g>
	<g>
		<path d="M52.346,20.375c-1.305,0.049-2.23,0.443-2.787,1.184c-0.553,0.74-0.826,1.516-0.826,2.327    c0,0.979,0.326,1.745,0.979,2.298c0.655,0.554,1.531,0.938,2.637,1.157v-6.965H52.346z" fill="#2e5e86"/>
		<path d="M46.456,26.319c0.881,2.173,1.433,4.509,1.615,6.949h0.2c0.078,1.355,0.292,2.341,0.639,2.963    c0.621,1.12,1.762,1.745,3.436,1.885v-8.079c-2.145-0.406-3.728-1.083-4.749-2.031C47.09,27.534,46.707,26.971,46.456,26.319z" fill="#2e5e86"/>
		<path d="M53.035,12.681c-4.868,0-9.253,2.053-12.359,5.33c2.481,2.289,4.471,5.102,5.762,8.278    c-0.246-0.651-0.374-1.394-0.374-2.226c0-1.501,0.548-2.854,1.651-4.06c1.1-1.206,2.642-1.819,4.631-1.838v-1.971h1.41v1.943    c1.961,0.138,3.472,0.714,4.525,1.735c1.049,1.021,1.602,2.369,1.651,4.044h-2.591c-0.069-0.752-0.274-1.397-0.607-1.941    c-0.625-0.998-1.615-1.521-2.979-1.573v7.221c2.29,0.64,3.846,1.244,4.671,1.806c1.333,0.927,1.999,2.3,1.999,4.119    c0,2.629-0.858,4.497-2.564,5.599c-0.949,0.616-2.317,1.022-4.105,1.219v2.874h-1.408v-2.874    c-1.938-0.133-3.424-0.664-4.522-1.547c-0.37,2.231-1.05,4.344-2.001,6.316c2.192,1.024,4.628,1.617,7.213,1.617    c9.404,0,17.035-7.63,17.035-17.036C70.074,20.309,62.441,12.681,53.035,12.681z" fill="#2e5e86"/>
		<path d="M57.761,34.274c0-1.235-0.453-2.174-1.363-2.817c-0.525-0.375-1.405-0.728-2.638-1.067v7.794    c1.688-0.078,2.852-0.696,3.495-1.853C57.588,35.741,57.761,35.055,57.761,34.274z" fill="#2e5e86"/>
		<path d="M27.756,37.409c-0.711-0.514-1.908-0.997-3.589-1.456v10.612c2.301-0.11,3.886-0.949,4.76-2.523    c0.458-0.808,0.688-1.742,0.688-2.804C29.616,39.558,28.997,38.28,27.756,37.409z" fill="#2e5e86"/>
		<path d="M18.455,23.932c-0.754,1.008-1.128,2.064-1.128,3.167c0,1.331,0.444,2.374,1.331,3.125    c0.891,0.753,2.086,1.277,3.593,1.572v-9.48C20.476,22.386,19.212,22.923,18.455,23.932z" fill="#2e5e86"/>
		<path d="M23.19,11.847C10.38,11.847,0,22.229,0,35.036s10.382,23.189,23.19,23.189c12.807,0,23.188-10.383,23.188-23.189    S35.997,11.847,23.19,11.847z M29.755,47.877c-1.291,0.832-3.152,1.385-5.586,1.653v3.914h-1.916V49.53    c-3.912-0.255-6.571-1.64-7.969-4.156c-0.766-1.359-1.149-3.193-1.149-5.506h3.569c0.107,1.843,0.399,3.188,0.874,4.037    c0.838,1.521,2.4,2.377,4.674,2.563V35.475c-2.92-0.55-5.075-1.473-6.466-2.765c-1.391-1.291-2.088-3.079-2.088-5.365    c0-2.044,0.75-3.887,2.25-5.527c1.5-1.642,3.602-2.475,6.304-2.501V16.63h1.916v2.642c2.677,0.189,4.73,0.977,6.161,2.364    c1.433,1.387,2.182,3.223,2.25,5.503h-3.529c-0.094-1.023-0.37-1.901-0.827-2.643c-0.847-1.358-2.198-2.071-4.055-2.139v9.823    c3.121,0.874,5.236,1.696,6.353,2.46c1.818,1.264,2.724,3.132,2.724,5.609C33.241,43.828,32.077,46.373,29.755,47.877z" fill="#2e5e86"/>
	</g>
</g>
<g>
</g>
<g>
</g>
<g>
</g>
<g>
</g>
<g>
</g>
<g>
</g>
<g>
</g>
<g>
</g>
<g>
</g>
<g>
</g>
<g>
</g>
<g>
</g>
<g>
</g>
<g>
</g>
<g>
</g>
</svg>
