<?xml version="1.0" encoding="UTF-8" standalone="no"?>
<!DOCTYPE svg PUBLIC "-//W3C//DTD SVG 20010904//EN" "http://www.w3.org/TR/2001/REC-SVG-20010904/DTD/svg10.dtd">
<svg version="1.0" xmlns="http://www.w3.org/2000/svg" width="300.000000pt" height="98.000000pt" viewBox="0 0 300.000000 98.000000" preserveAspectRatio="xMidYMid meet">
<metadata>
Created by potrace 1.10, written by Peter Selinger 2001-2011
</metadata>
<g transform="translate(0.000000,98.000000) scale(0.050000,-0.050000)" fill="#5595db" stroke="none">
<path d="M3627 1880 c-66 -26 -107 -100 -107 -192 0 -231 317 -287 383 -67 51 170 -114 325 -276 259z"/>
<path d="M5487 1881 c-112 -47 -147 -242 -59 -331 154 -154 407 -4 338 201 -34 103 -181 171 -279 130z"/>
<path d="M446 1784 c-46 -7 -135 -327 -221 -796 -34 -182 -37 -190 -95 -205 -57 -16 -83 -214 -37 -288 11 -18 297 -19 443 -2 l106 13 -6 142 c-6 138 -7 142 -61 148 -114 13 -70 84 52 84 119 0 211 -89 107 -104 -42 -6 -57 -220 -21 -281 11 -18 397 -20 485 -2 l64 12 -6 143 c-6 138 -7 142 -61 148 -30 4 -55 9 -55 12 0 11 -338 957 -344 962 -11 9 -304 21 -350 14z m196 -193 c10 6 18 2 18 -10 0 -11 15 -21 33 -21 19 0 28 -6 21 -13 -8 -7 -3 -26 10 -42 13 -16 26 -39 29 -52 3 -13 18 -59 34 -103 23 -61 24 -87 6 -109 -18 -22 -17 -25 2 -14 22 14 33 -8 20 -38 -3 -7 11 -21 30 -32 20 -11 31 -27 25 -37 -6 -9 0 -42 13 -73 13 -31 25 -61 28 -67 2 -5 10 -39 19 -75 9 -40 23 -59 37 -51 13 8 10 -2 -5 -21 -15 -19 -22 -40 -15 -47 7 -7 13 -2 13 11 0 18 7 18 28 -1 15 -14 25 -29 21 -34 -4 -4 1 -24 12 -45 27 -49 -15 -51 -55 -2 -16 19 -23 24 -17 11 9 -18 -9 -24 -59 -22 -39 1 -61 9 -48 17 13 8 17 25 9 37 -7 12 0 22 18 22 74 0 -39 160 -175 249 -64 42 -68 63 -14 77 50 13 51 62 3 131 -20 29 -43 71 -52 93 -13 34 -21 26 -60 -58 -47 -101 -47 -172 1 -172 42 0 34 -36 -21 -91 -27 -27 -45 -49 -40 -49 4 0 -25 -32 -66 -70 -67 -63 -71 -73 -40 -91 84 -50 78 -91 -15 -96 -47 -3 -92 5 -99 16 -8 12 -2 21 11 21 14 0 19 5 13 12 -6 6 6 29 28 51 22 22 35 54 28 71 -8 22 -2 27 22 18 24 -10 28 -7 13 13 -23 29 -13 132 16 168 13 15 13 28 1 35 -26 16 20 112 47 97 11 -6 9 1 -4 15 -26 29 -14 195 17 229 9 10 17 30 17 43 0 43 109 154 117 119 3 -17 14 -26 25 -20z m14 -396 c22 -52 20 -55 -29 -55 -44 0 -50 7 -40 45 7 25 13 58 13 74 0 37 25 8 56 -64z"/>
<path d="M2556 1453 c-166 -28 -161 -23 -145 -171 14 -118 16 -122 72 -122 l57 0 0 -190 0 -190 -60 0 -60 0 0 -140 0 -141 325 6 325 5 0 130 0 130 -94 6 c-86 6 -94 11 -107 67 -41 188 88 318 216 217 28 -22 56 -40 62 -40 20 0 193 237 193 265 0 117 -335 208 -456 124 -42 -30 -45 -29 -64 20 -22 58 -47 60 -264 24z m248 -159 c27 -28 41 -34 77 -34 12 0 15 -11 5 -25 -8 -14 -16 -29 -16 -35 -1 -21 -70 -108 -71 -89 0 10 -9 3 -21 -16 -27 -47 -72 -44 -88 5 -7 22 -20 40 -29 40 -37 0 -42 125 -6 152 45 34 115 35 149 2z m-45 -537 c51 -55 37 -76 -49 -73 -83 3 -104 44 -45 85 54 38 46 39 94 -12z"/>
<path d="M4746 1421 c-10 -38 -14 -38 -71 -8 -106 54 -334 31 -429 -45 -397 -317 -19 -1068 422 -838 73 39 83 29 44 -46 -44 -86 -94 -92 -285 -33 -45 13 -113 -100 -140 -233 -15 -72 121 -140 287 -144 398 -11 521 164 500 716 l-12 322 61 23 c51 19 60 31 50 69 -7 25 -13 93 -13 151 l0 105 -202 0 c-184 0 -203 -3 -212 -39z m65 -142 c8 -14 21 -14 41 2 16 14 28 15 28 4 0 -11 20 -19 44 -17 60 3 69 -90 15 -139 -22 -19 -39 -47 -39 -61 0 -17 -13 -22 -35 -13 -33 12 -33 10 1 -41 19 -30 26 -54 14 -54 -11 0 -20 -14 -20 -31 0 -17 9 -26 20 -19 11 7 20 3 20 -9 0 -11 -9 -21 -19 -21 -23 0 -3 -64 25 -83 29 -19 -1 -82 -31 -65 -14 8 -7 -5 14 -30 32 -36 35 -51 16 -82 -17 -26 -17 -39 -2 -44 36 -12 0 -93 -39 -87 -19 3 -32 13 -30 23 2 10 -14 24 -35 32 -22 8 -39 27 -39 43 0 25 -67 61 -105 55 -8 -1 -15 7 -15 18 0 11 11 21 25 21 14 1 7 10 -15 19 -30 13 -32 18 -8 19 39 1 130 78 123 103 -3 10 9 18 27 18 19 0 28 11 22 28 -6 15 -2 36 10 48 33 33 -2 175 -55 221 -27 24 -49 56 -49 73 0 16 -11 30 -25 31 -14 0 -2 13 25 29 61 35 74 36 91 9z m-391 -38 c-16 -11 -30 -31 -30 -45 0 -14 -9 -28 -20 -30 -11 -2 -31 -29 -44 -60 -13 -31 -25 -44 -25 -30 -1 15 -9 21 -19 15 -10 -6 -16 3 -14 20 6 42 114 146 152 148 27 0 27 -2 0 -18z m207 -142 c95 -75 55 -260 -55 -259 -121 1 -174 160 -83 251 60 60 71 60 138 8z m-264 -284 c47 -45 44 -65 -10 -65 -24 0 -41 11 -38 26 3 14 -8 30 -25 37 -33 12 -21 49 14 42 13 -3 39 -21 59 -40z m126 -121 c26 -26 26 -31 0 -41 -18 -7 -29 0 -29 19 0 21 -12 27 -38 19 -22 -7 -41 -1 -48 15 -14 38 75 28 115 -12z m391 -274 c0 -11 -12 -20 -26 -20 -14 0 -27 -19 -29 -42 -4 -53 -3 -52 -73 -69 -42 -11 -54 -8 -44 8 8 13 23 18 33 12 11 -6 19 -2 19 11 0 37 63 120 92 120 16 0 28 -9 28 -20z"/>
<path d="M1406 1412 c-179 -30 -169 -18 -154 -189 l14 -143 62 0 62 0 0 -349 0 -349 -60 -6 -60 -6 0 -140 0 -140 335 -5 335 -6 0 138 c0 151 -9 163 -122 163 -51 0 -58 7 -58 60 0 57 4 60 55 46 318 -88 535 96 535 452 0 383 -269 603 -579 474 -59 -25 -69 -25 -79 0 -13 33 -84 33 -286 0z m340 -191 c6 -23 -10 -66 -38 -104 -26 -36 -48 -77 -48 -92 0 -15 -8 -22 -19 -16 -10 6 -25 1 -33 -12 -9 -14 -6 -18 9 -9 15 10 23 -6 23 -48 0 -45 7 -58 25 -47 17 10 16 3 -3 -20 -15 -19 -22 -40 -15 -47 7 -7 13 -2 13 12 0 13 9 19 21 11 12 -7 18 -22 14 -35 -4 -12 28 -56 71 -98 54 -52 69 -76 46 -76 -18 0 -39 -16 -47 -35 -16 -44 -104 -125 -134 -125 -31 0 -108 59 -78 59 23 1 28 101 5 101 -34 0 11 239 50 265 14 9 11 14 -9 15 -18 0 -32 21 -35 54 -2 29 -21 72 -41 95 -59 65 -81 150 -36 135 10 -3 13 8 6 25 -10 26 9 31 115 31 109 0 129 -5 138 -39z m363 -43 c-6 -10 3 -18 20 -18 36 0 41 -31 9 -51 -28 -18 -107 60 -90 88 7 12 26 16 43 10 16 -6 24 -19 18 -29z m-149 -98 c83 -83 32 -310 -66 -296 -124 18 -118 336 6 336 11 0 38 -18 60 -40z m205 -313 c-14 -6 -25 -23 -25 -39 0 -15 -10 -28 -21 -28 -12 0 -15 11 -7 25 11 20 8 20 -13 0 -46 -42 -84 -31 -44 13 19 21 58 39 85 39 28 0 39 -5 25 -10z m-545 -355 c0 -15 18 -49 39 -77 48 -60 37 -75 -57 -75 -117 1 -149 50 -72 109 22 16 32 30 23 30 -10 1 -7 14 7 31 27 33 60 23 60 -18z"/>
<path d="M3425 1366 c-42 -8 -44 -16 -33 -122 16 -160 18 -164 97 -164 l71 0 0 -160 0 -160 -80 0 -80 0 0 -130 0 -130 329 0 c369 0 349 -8 333 140 -12 107 -14 110 -77 116 l-65 7 0 296 0 296 -62 13 c-68 13 -360 12 -433 -2z m266 -184 c-6 -9 4 -16 22 -15 47 4 50 -81 4 -94 -23 -6 -37 1 -37 19 0 15 -13 28 -30 28 -30 0 -41 42 -17 67 20 20 71 16 58 -5z m109 -423 c0 -12 -8 -16 -19 -10 -10 6 -24 2 -31 -9 -7 -12 -6 -20 4 -18 9 1 32 2 52 0 66 -4 18 -34 -63 -39 -82 -5 -127 23 -72 45 18 6 26 21 19 32 -7 12 13 20 49 20 33 0 61 -10 61 -21z"/>
<path d="M5285 1366 c-42 -8 -44 -16 -33 -122 16 -160 18 -164 97 -164 l71 0 0 -160 0 -160 -81 0 -81 0 6 -125 6 -125 318 -6 c364 -6 351 -11 337 141 l-10 115 -67 0 -68 0 0 298 0 297 -62 13 c-68 13 -360 12 -433 -2z m306 -239 c1 -77 -39 -69 -83 17 -30 59 -30 59 26 52 48 -5 56 -15 57 -69z m69 -380 c0 -17 11 -24 25 -17 14 7 5 -5 -20 -27 -49 -43 -145 -34 -161 16 -6 16 0 21 13 13 13 -8 23 -2 23 15 0 31 52 52 95 37 14 -4 25 -21 25 -37z"/>
</g>
</svg>
