<?xml version="1.0" encoding="UTF-8" standalone="no"?>
<!DOCTYPE svg PUBLIC "-//W3C//DTD SVG 20010904//EN" "http://www.w3.org/TR/2001/REC-SVG-20010904/DTD/svg10.dtd">
<svg version="1.0" xmlns="http://www.w3.org/2000/svg" width="900.000000pt" height="294.000000pt" viewBox="0 0 900.000000 294.000000" preserveAspectRatio="xMidYMid meet">
<metadata>
Created by potrace 1.10, written by Peter Selinger 2001-2011
</metadata>
<g transform="translate(0.000000,294.000000) scale(0.100000,-0.100000)" fill="#2e5e86" stroke="none">
<path d="M5466 2813 c-58 -10 -139 -78 -179 -150 -26 -48 -24 -228 4 -282 46 -88 112 -133 219 -149 147 -21 253 23 311 130 20 38 23 57 23 158 l1 115 -38 52 c-21 28 -62 68 -92 88 -50 33 -62 36 -137 40 -46 2 -96 1 -112 -2z"/>
<path d="M8256 2813 c-59 -9 -135 -74 -172 -145 -20 -40 -24 -62 -24 -141 0 -111 18 -162 77 -218 52 -50 87 -66 166 -78 177 -26 300 51 334 209 30 142 -4 239 -112 321 -71 53 -152 69 -269 52z"/>
<path d="M607 2643 c-9 -11 -17 -29 -17 -42 0 -12 -7 -38 -15 -58 -8 -19 -15 -44 -15 -55 0 -11 -6 -41 -14 -67 -19 -61 -35 -125 -46 -181 -5 -25 -14 -65 -20 -90 -7 -25 -18 -70 -25 -100 -7 -30 -19 -77 -25 -105 -7 -27 -16 -68 -20 -90 -7 -38 -14 -68 -41 -182 -7 -27 -16 -70 -20 -98 -10 -64 -27 -145 -45 -217 -8 -32 -14 -70 -14 -85 0 -52 -12 -74 -51 -93 -21 -11 -53 -20 -72 -20 -21 0 -41 -7 -52 -20 -16 -18 -17 -34 -10 -192 5 -126 11 -181 24 -206 l16 -35 220 7 c121 4 301 13 400 19 l180 12 3 110 c2 61 0 152 -3 203 -8 109 -16 118 -111 130 l-59 7 -3 41 c-5 69 6 74 173 74 l144 0 15 -29 c9 -16 22 -47 29 -69 16 -47 11 -52 -49 -52 -54 0 -59 -21 -48 -219 8 -149 12 -173 30 -198 l21 -28 234 1 c228 1 517 19 531 32 12 12 12 402 0 414 -6 6 -39 11 -73 12 -60 1 -64 3 -82 34 -11 18 -23 47 -27 65 -11 41 -30 97 -43 122 -6 11 -14 33 -18 50 -4 16 -17 55 -29 85 -12 30 -25 69 -30 85 -12 43 -31 97 -43 120 -6 11 -14 33 -18 50 -4 16 -17 55 -29 85 -12 30 -25 69 -30 85 -12 43 -31 97 -43 120 -6 11 -14 33 -18 50 -4 16 -17 55 -29 85 -12 30 -25 69 -30 85 -5 17 -18 55 -30 85 -12 30 -25 69 -30 85 -4 17 -12 41 -18 55 -42 104 -45 109 -76 121 -20 8 -119 14 -281 17 -237 4 -251 3 -268 -15z m343 -808 c0 -11 6 -30 14 -41 8 -11 16 -35 18 -54 l3 -35 -62 -3 c-62 -3 -63 -3 -63 24 0 14 7 47 15 73 8 25 17 59 20 75 l6 29 25 -23 c13 -13 24 -33 24 -45z"/>
<path d="M4025 2194 c-27 -7 -68 -14 -90 -14 -22 0 -65 -7 -95 -15 -30 -8 -71 -15 -90 -15 -19 0 -62 -8 -95 -18 -56 -17 -60 -20 -63 -51 -2 -18 2 -56 8 -84 7 -29 15 -93 19 -144 4 -50 13 -99 21 -107 9 -11 30 -16 70 -16 98 0 90 24 90 -279 0 -194 -3 -270 -12 -279 -7 -7 -39 -12 -73 -12 -100 0 -98 4 -94 -207 3 -133 8 -184 18 -197 12 -14 59 -16 476 -16 l463 0 6 22 c3 13 6 96 6 185 0 129 -3 165 -15 176 -17 18 -121 37 -199 37 -56 0 -57 0 -72 37 -9 20 -18 78 -21 129 -5 74 -2 102 13 145 25 74 67 125 121 149 78 34 123 24 232 -54 54 -38 75 -31 141 50 30 37 60 72 65 78 26 29 84 106 113 149 49 74 45 104 -24 165 -30 27 -72 58 -92 68 -20 10 -43 23 -50 28 -44 31 -121 45 -248 46 -137 0 -178 -10 -266 -67 -26 -16 -27 -16 -47 8 -11 13 -20 32 -21 41 0 9 -5 20 -11 23 -5 4 -14 18 -19 31 -8 21 -15 24 -62 23 -29 0 -75 -7 -103 -15z"/>
<path d="M7256 2163 c-61 -2 -116 -9 -123 -15 -7 -6 -13 -24 -13 -40 0 -40 -22 -45 -83 -16 -110 52 -150 60 -317 56 -160 -4 -176 -7 -280 -57 -158 -76 -272 -231 -301 -411 -29 -173 -29 -201 -8 -370 24 -184 88 -314 212 -429 49 -46 63 -55 132 -88 91 -44 136 -53 270 -53 137 0 196 13 280 60 35 19 65 26 65 14 0 -3 -7 -29 -15 -58 -35 -119 -123 -168 -259 -145 -67 11 -122 29 -156 50 -64 39 -91 34 -115 -24 -9 -23 -23 -55 -30 -72 -7 -16 -20 -50 -30 -75 -9 -25 -23 -58 -31 -73 -8 -16 -14 -36 -14 -45 0 -9 -7 -26 -15 -36 -38 -51 2 -106 118 -163 106 -51 155 -62 303 -69 208 -9 287 4 423 70 64 31 195 151 225 206 49 89 77 160 100 252 18 76 22 397 6 578 -6 58 -13 185 -16 283 -7 169 -6 177 12 177 20 1 111 30 132 44 20 12 6 426 -16 444 -16 12 -157 13 -456 5z m-342 -497 c25 -13 51 -39 69 -71 26 -44 30 -59 30 -130 0 -93 -23 -147 -78 -189 -28 -21 -45 -26 -95 -26 -55 0 -67 4 -102 31 -49 40 -88 122 -88 189 0 60 39 151 77 177 43 30 106 52 128 46 11 -3 38 -15 59 -27z"/>
<path d="M2345 2134 c-33 -7 -80 -13 -105 -14 -25 0 -70 -7 -100 -15 -30 -8 -73 -15 -95 -15 -55 -1 -155 -26 -173 -43 -12 -13 -12 -31 -3 -116 6 -56 11 -143 11 -194 0 -51 4 -99 10 -107 6 -10 35 -16 97 -20 l88 -5 3 -517 c3 -589 13 -530 -93 -543 -33 -4 -71 -12 -84 -17 l-24 -9 6 -180 c4 -153 8 -183 23 -200 16 -18 35 -19 486 -19 304 0 476 4 489 10 18 10 19 23 19 195 0 180 -1 185 -22 199 -26 16 -119 35 -193 39 l-50 2 -3 88 c-3 96 1 101 56 73 47 -24 215 -35 327 -21 98 11 114 16 204 58 68 31 181 144 217 219 49 99 64 137 64 166 1 15 7 54 15 87 28 116 12 362 -32 480 -41 111 -80 172 -158 251 -63 64 -96 89 -158 117 -43 21 -85 37 -95 37 -9 0 -39 7 -66 15 -65 20 -173 19 -266 -1 -76 -17 -155 -48 -166 -65 -10 -17 -22 -9 -45 29 -13 20 -28 40 -33 44 -16 11 -83 8 -151 -8z m565 -496 c56 -43 73 -90 77 -212 4 -77 1 -110 -13 -145 -20 -54 -44 -90 -60 -91 -6 0 -17 -7 -24 -15 -17 -20 -69 -19 -102 3 -29 19 -68 65 -68 80 0 5 -7 23 -15 38 -21 40 -21 222 0 250 8 10 15 26 15 35 0 30 83 88 127 89 12 0 40 -15 63 -32z"/>
<path d="M5195 2038 c-55 -5 -106 -14 -113 -21 -10 -8 -13 -26 -8 -67 3 -30 10 -106 16 -167 5 -67 16 -126 26 -144 l16 -32 84 6 c55 3 89 1 99 -7 14 -10 16 -40 13 -234 -2 -185 -6 -224 -18 -232 -8 -5 -54 -10 -102 -10 -123 0 -122 2 -115 -175 3 -77 11 -157 17 -178 l11 -37 475 0 474 0 8 23 c4 12 6 93 4 179 l-4 157 -39 15 c-22 9 -63 16 -92 16 -29 0 -58 5 -65 12 -9 9 -12 119 -12 433 0 322 -3 425 -12 437 -28 33 -417 49 -663 26z"/>
<path d="M7985 2038 c-55 -5 -106 -14 -113 -21 -10 -8 -12 -25 -8 -62 3 -27 10 -100 16 -162 5 -62 16 -129 25 -149 l15 -37 83 5 c46 3 91 1 100 -4 15 -8 17 -34 17 -228 0 -185 -2 -221 -16 -234 -12 -12 -37 -16 -104 -16 -115 0 -120 -4 -120 -115 0 -77 14 -217 26 -257 5 -17 37 -18 484 -18 l479 0 6 33 c3 17 2 99 -2 181 l-8 149 -35 13 c-19 7 -60 13 -91 13 -30 1 -60 6 -67 13 -9 9 -12 120 -12 439 0 329 -3 429 -12 436 -37 29 -442 41 -663 21z"/>
</g>
</svg>