<svg xmlns="http://www.w3.org/2000/svg" width="512" height="512" viewBox="0 0 70.072 70.072"><g fill="#5595db"><path d="M52.346 20.375c-1.305.049-2.23.443-2.787 1.184-.553.74-.826 1.516-.826 2.327 0 .979.326 1.745.979 2.298.655.554 1.531.938 2.637 1.157v-6.965h-.003zm-5.89 5.944a23.023 23.023 0 0 1 1.615 6.949h.2c.078 1.355.292 2.341.639 2.963.621 1.12 1.762 1.745 3.436 1.885v-8.079c-2.145-.406-3.728-1.083-4.749-2.031a4.477 4.477 0 0 1-1.141-1.687z"/><path d="M53.035 12.681c-4.868 0-9.253 2.053-12.359 5.33a23.136 23.136 0 0 1 5.762 8.278c-.246-.651-.374-1.394-.374-2.226 0-1.501.548-2.854 1.651-4.06 1.1-1.206 2.642-1.819 4.631-1.838v-1.971h1.41v1.943c1.961.138 3.472.714 4.525 1.735 1.049 1.021 1.602 2.369 1.651 4.044h-2.591c-.069-.752-.274-1.397-.607-1.941-.625-.998-1.615-1.521-2.979-1.573v7.221c2.29.64 3.846 1.244 4.671 1.806 1.333.927 1.999 2.3 1.999 4.119 0 2.629-.858 4.497-2.564 5.599-.949.616-2.317 1.022-4.105 1.219v2.874h-1.408v-2.874c-1.938-.133-3.424-.664-4.522-1.547a23.265 23.265 0 0 1-2.001 6.316 16.984 16.984 0 0 0 7.213 1.617c9.404 0 17.035-7.63 17.035-17.036.001-9.407-7.632-17.035-17.038-17.035z"/><path d="M57.761 34.274c0-1.235-.453-2.174-1.363-2.817-.525-.375-1.405-.728-2.638-1.067v7.794c1.688-.078 2.852-.696 3.495-1.853.333-.59.506-1.276.506-2.057zm-30.005 3.135c-.711-.514-1.908-.997-3.589-1.456v10.612c2.301-.11 3.886-.949 4.76-2.523.458-.808.688-1.742.688-2.804.001-1.68-.618-2.958-1.859-3.829zm-9.301-13.477c-.754 1.008-1.128 2.064-1.128 3.167 0 1.331.444 2.374 1.331 3.125.891.753 2.086 1.277 3.593 1.572v-9.48c-1.775.07-3.039.607-3.796 1.616z"/><path d="M23.19 11.847C10.38 11.847 0 22.229 0 35.036s10.382 23.189 23.19 23.189c12.807 0 23.188-10.383 23.188-23.189S35.997 11.847 23.19 11.847zm6.565 36.03c-1.291.832-3.152 1.385-5.586 1.653v3.914h-1.916V49.53c-3.912-.255-6.571-1.64-7.969-4.156-.766-1.359-1.149-3.193-1.149-5.506h3.569c.107 1.843.399 3.188.874 4.037.838 1.521 2.4 2.377 4.674 2.563V35.475c-2.92-.55-5.075-1.473-6.466-2.765-1.391-1.291-2.088-3.079-2.088-5.365 0-2.044.75-3.887 2.25-5.527 1.5-1.642 3.602-2.475 6.304-2.501V16.63h1.916v2.642c2.677.189 4.73.977 6.161 2.364 1.433 1.387 2.182 3.223 2.25 5.503H29.05c-.094-1.023-.37-1.901-.827-2.643-.847-1.358-2.198-2.071-4.055-2.139v9.823c3.121.874 5.236 1.696 6.353 2.46 1.818 1.264 2.724 3.132 2.724 5.609-.004 3.579-1.168 6.124-3.49 7.628z"/></g></svg>