<svg version="1" xmlns="http://www.w3.org/2000/svg" width="400" height="130.667" viewBox="0 0 300.000000 98.000000"><g fill="#5595db"><path d="M181.35 4c-3.3 1.3-5.35 5-5.35 9.6 0 11.55 15.85 14.35 19.15 3.35C197.7 8.45 189.45.7 181.35 4zm93-.05c-5.6 2.35-7.35 12.1-2.95 16.55 7.7 7.7 20.35.2 16.9-10.05-1.7-5.15-9.05-8.55-13.95-6.5zM22.3 8.8c-2.3.35-6.75 16.35-11.05 39.8-1.7 9.1-1.85 9.5-4.75 10.25-2.85.8-4.15 10.7-1.85 14.4.55.9 14.85.95 22.15.1l5.3-.65-.3-7.1c-.3-6.9-.35-7.1-3.05-7.4-5.7-.65-3.5-4.2 2.6-4.2 5.95 0 10.55 4.45 5.35 5.2-2.1.3-2.85 11-1.05 14.05.55.9 19.85 1 24.25.1l3.2-.6-.3-7.15c-.3-6.9-.35-7.1-3.05-7.4-1.5-.2-2.75-.45-2.75-.6 0-.55-16.9-47.85-17.2-48.1-.55-.45-15.2-1.05-17.5-.7zm9.8 9.65c.5-.3.9-.1.9.5 0 .55.75 1.05 1.65 1.05.95 0 1.4.3 1.05.65-.4.35-.15 1.3.5 2.1s1.3 1.95 1.45 2.6c.15.65.9 2.95 1.7 5.15 1.15 3.05 1.2 4.35.3 5.45-.9 1.1-.85 1.25.1.7 1.1-.7 1.65.4 1 1.9-.15.35.55 1.05 1.5 1.6 1 .55 1.55 1.35 1.25 1.85-.3.45 0 2.1.65 3.65.65 1.55 1.25 3.05 1.4 3.35.1.25.5 1.95.95 3.75.45 2 1.15 2.95 1.85 2.55.65-.4.5.1-.25 1.05-.75.95-1.1 2-.75 2.35.35.35.65.1.65-.55 0-.9.35-.9 1.4.05.75.7 1.25 1.45 1.05 1.7-.2.2.05 1.2.6 2.25 1.35 2.45-.75 2.55-2.75.1-.8-.95-1.15-1.2-.85-.55.45.9-.45 1.2-2.95 1.1-1.95-.05-3.05-.45-2.4-.85.65-.4.85-1.25.45-1.85-.35-.6 0-1.1.9-1.1 3.7 0-1.95-8-8.75-12.45-3.2-2.1-3.4-3.15-.7-3.85 2.5-.65 2.55-3.1.15-6.55-1-1.45-2.15-3.55-2.6-4.65-.65-1.7-1.05-1.3-3 2.9-2.35 5.05-2.35 8.6.05 8.6 2.1 0 1.7 1.8-1.05 4.55-1.35 1.35-2.25 2.45-2 2.45.2 0-1.25 1.6-3.3 3.5-3.35 3.15-3.55 3.65-2 4.55 4.2 2.5 3.9 4.55-.75 4.8-2.35.15-4.6-.25-4.95-.8-.4-.6-.1-1.05.55-1.05.7 0 .95-.25.65-.6-.3-.3.3-1.45 1.4-2.55 1.1-1.1 1.75-2.7 1.4-3.55-.4-1.1-.1-1.35 1.1-.9 1.2.5 1.4.35.65-.65-1.15-1.45-.65-6.6.8-8.4.65-.75.65-1.4.05-1.75-1.3-.8 1-5.6 2.35-4.85.55.3.45-.05-.2-.75-1.3-1.45-.7-9.75.85-11.45.45-.5.85-1.5.85-2.15 0-2.15 5.45-7.7 5.85-5.95.15.85.7 1.3 1.25 1zm.7 19.8c1.1 2.6 1 2.75-1.45 2.75-2.2 0-2.5-.35-2-2.25.35-1.25.65-2.9.65-3.7 0-1.85 1.25-.4 2.8 3.2zm95-12.9c-8.3 1.4-8.05 1.15-7.25 8.55.7 5.9.8 6.1 3.6 6.1H127v19h-6v14.05l16.25-.3 16.25-.25v-13l-4.7-.3c-4.3-.3-4.7-.55-5.35-3.35-2.05-9.4 4.4-15.9 10.8-10.85 1.4 1.1 2.8 2 3.1 2 1 0 9.65-11.85 9.65-13.25 0-5.85-16.75-10.4-22.8-6.2-2.1 1.5-2.25 1.45-3.2-1-1.1-2.9-2.35-3-13.2-1.2zm12.4 7.95c1.35 1.4 2.05 1.7 3.85 1.7.6 0 .75.55.25 1.25-.4.7-.8 1.45-.8 1.75-.05 1.05-3.5 5.4-3.55 4.45 0-.5-.45-.15-1.05.8-1.35 2.35-3.6 2.2-4.4-.25-.35-1.1-1-2-1.45-2-1.85 0-2.1-6.25-.3-7.6 2.25-1.7 5.75-1.75 7.45-.1zm-2.25 26.85c2.55 2.75 1.85 3.8-2.45 3.65-4.15-.15-5.2-2.2-2.25-4.25 2.7-1.9 2.3-1.95 4.7.6zm99.35-33.2c-.5 1.9-.7 1.9-3.55.4-5.3-2.7-16.7-1.55-21.45 2.25-19.85 15.85-.95 53.4 21.1 41.9 3.65-1.95 4.15-1.45 2.2 2.3-2.2 4.3-4.7 4.6-14.25 1.65-2.25-.65-5.65 5-7 11.65-.75 3.6 6.05 7 14.35 7.2 19.9.55 26.05-8.2 25-35.8l-.6-16.1 3.05-1.15c2.55-.95 3-1.55 2.5-3.45-.35-1.25-.65-4.65-.65-7.55V25h-10.1c-9.2 0-10.15.15-10.6 1.95zm3.25 7.1c.4.7 1.05.7 2.05-.1.8-.7 1.4-.75 1.4-.2s1 .95 2.2.85c3-.15 3.45 4.5.75 6.95-1.1.95-1.95 2.35-1.95 3.05 0 .85-.65 1.1-1.75.65-1.65-.6-1.65-.5.05 2.05.95 1.5 1.3 2.7.7 2.7-.55 0-1 .7-1 1.55 0 .85.45 1.3 1 .95.55-.35 1-.15 1 .45 0 .55-.45 1.05-.95 1.05-1.15 0-.15 3.2 1.25 4.15 1.45.95-.05 4.1-1.55 3.25-.7-.4-.35.25.7 1.5 1.6 1.8 1.75 2.55.8 4.1-.85 1.3-.85 1.95-.1 2.2 1.8.6 0 4.65-1.95 4.35-.95-.15-1.6-.65-1.5-1.15.1-.5-.7-1.2-1.75-1.6-1.1-.4-1.95-1.35-1.95-2.15 0-1.25-3.35-3.05-5.25-2.75-.4.05-.75-.35-.75-.9s.55-1.05 1.25-1.05c.7-.05.35-.5-.75-.95-1.5-.65-1.6-.9-.4-.95 1.95-.05 6.5-3.9 6.15-5.15-.15-.5.45-.9 1.35-.9.95 0 1.4-.55 1.1-1.4-.3-.75-.1-1.8.5-2.4 1.65-1.65-.1-8.75-2.75-11.05-1.35-1.2-2.45-2.8-2.45-3.65 0-.8-.55-1.5-1.25-1.55-.7 0-.1-.65 1.25-1.45 3.05-1.75 3.7-1.8 4.55-.45zM221 35.95c-.8.55-1.5 1.55-1.5 2.25s-.45 1.4-1 1.5c-.55.1-1.55 1.45-2.2 3-.65 1.55-1.25 2.2-1.25 1.5-.05-.75-.45-1.05-.95-.75-.5.3-.8-.15-.7-1 .3-2.1 5.7-7.3 7.6-7.4 1.35 0 1.35.1 0 .9zm10.35 7.1c4.75 3.75 2.75 13-2.75 12.95-6.05-.05-8.7-8-4.15-12.55 3-3 3.55-3 6.9-.4zm-13.2 14.2c2.35 2.25 2.2 3.25-.5 3.25-1.2 0-2.05-.55-1.9-1.3.15-.7-.4-1.5-1.25-1.85-1.65-.6-1.05-2.45.7-2.1.65.15 1.95 1.05 2.95 2zm6.3 6.05c1.3 1.3 1.3 1.55 0 2.05-.9.35-1.45 0-1.45-.95 0-1.05-.6-1.35-1.9-.95-1.1.35-2.05.05-2.4-.75-.7-1.9 3.75-1.4 5.75.6zM244 77c0 .55-.6 1-1.3 1-.7 0-1.35.95-1.45 2.1-.2 2.65-.15 2.6-3.65 3.45-2.1.55-2.7.4-2.2-.4.4-.65 1.15-.9 1.65-.6.55.3.95.1.95-.55 0-1.85 3.15-6 4.6-6 .8 0 1.4.45 1.4 1z"/><path d="M70.3 27.4c-8.95 1.5-8.45.9-7.7 9.45l.7 7.15h6.2v34.9l-3 .3-3 .3v14l16.75.25 16.75.3v-6.9c0-7.55-.45-8.15-6.1-8.15-2.55 0-2.9-.35-2.9-3 0-2.85.2-3 2.75-2.3 15.9 4.4 26.75-4.8 26.75-22.6 0-19.15-13.45-30.15-28.95-23.7-2.95 1.25-3.45 1.25-3.95 0-.65-1.65-4.2-1.65-14.3 0zm17 9.55c.3 1.15-.5 3.3-1.9 5.2-1.3 1.8-2.4 3.85-2.4 4.6 0 .75-.4 1.1-.95.8-.5-.3-1.25-.05-1.65.6-.45.7-.3.9.45.45.75-.5 1.15.3 1.15 2.4 0 2.25.35 2.9 1.25 2.35.85-.5.8-.15-.15 1-.75.95-1.1 2-.75 2.35.35.35.65.1.65-.6 0-.65.45-.95 1.05-.55.6.35.9 1.1.7 1.75-.2.6 1.4 2.8 3.55 4.9 2.7 2.6 3.45 3.8 2.3 3.8-.9 0-1.95.8-2.35 1.75-.8 2.2-5.2 6.25-6.7 6.25-1.55 0-5.4-2.95-3.9-2.95C78.8 71 79.05 66 77.9 66c-1.7 0 .55-11.95 2.5-13.25.7-.45.55-.7-.45-.75-.9 0-1.6-1.05-1.75-2.7-.1-1.45-1.05-3.6-2.05-4.75-2.95-3.25-4.05-7.5-1.8-6.75.5.15.65-.4.3-1.25-.5-1.3.45-1.55 5.75-1.55 5.45 0 6.45.25 6.9 1.95zm18.15 2.15c-.3.5.15.9 1 .9 1.8 0 2.05 1.55.45 2.55-1.4.9-5.35-3-4.5-4.4.35-.6 1.3-.8 2.15-.5.8.3 1.2.95.9 1.45zM98 44c4.15 4.15 1.6 15.5-3.3 14.8-6.2-.9-5.9-16.8.3-16.8.55 0 1.9.9 3 2zm10.25 15.65c-.7.3-1.25 1.15-1.25 1.95 0 .75-.5 1.4-1.05 1.4-.6 0-.75-.55-.35-1.25.55-1 .4-1-.65 0-2.3 2.1-4.2 1.55-2.2-.65.95-1.05 2.9-1.95 4.25-1.95 1.4 0 1.95.25 1.25.5zM81 77.4c0 .75.9 2.45 1.95 3.85 2.4 3 1.85 3.75-2.85 3.75-5.85-.05-7.45-2.5-3.6-5.45 1.1-.8 1.6-1.5 1.15-1.5-.5-.05-.35-.7.35-1.55 1.35-1.65 3-1.15 3 .9zm90.25-47.7c-2.1.4-2.2.8-1.65 6.1.8 8 .9 8.2 4.85 8.2H178v16h-8v13h16.45c18.45 0 17.45.4 16.65-7-.6-5.35-.7-5.5-3.85-5.8l-3.25-.35v-29.6l-3.1-.65c-3.4-.65-18-.6-21.65.1zm13.3 9.2c-.3.45.2.8 1.1.75 2.35-.2 2.5 4.05.2 4.7-1.15.3-1.85-.05-1.85-.95 0-.75-.65-1.4-1.5-1.4-1.5 0-2.05-2.1-.85-3.35 1-1 3.55-.8 2.9.25zM190 60.05c0 .6-.4.8-.95.5-.5-.3-1.2-.1-1.55.45-.35.6-.3 1 .2.9.45-.05 1.6-.1 2.6 0 3.3.2.9 1.7-3.15 1.95-4.1.25-6.35-1.15-3.6-2.25.9-.3 1.3-1.05.95-1.6-.35-.6.65-1 2.45-1 1.65 0 3.05.5 3.05 1.05zm74.25-30.35c-2.1.4-2.2.8-1.65 6.1.8 8 .9 8.2 4.85 8.2H271v16h-8.1l.3 6.25.3 6.25 15.9.3c18.2.3 17.55.55 16.85-7.05l-.5-5.75H289V30.25l-3.1-.65c-3.4-.65-18-.6-21.65.1zm15.3 11.95c.05 3.85-1.95 3.45-4.15-.85-1.5-2.95-1.5-2.95 1.3-2.6 2.4.25 2.8.75 2.85 3.45zm3.45 19c0 .85.55 1.2 1.25.85s.25.25-1 1.35c-2.45 2.15-7.25 1.7-8.05-.8-.3-.8 0-1.05.65-.65s1.15.1 1.15-.75c0-1.55 2.6-2.6 4.75-1.85.7.2 1.25 1.05 1.25 1.85z"/></g></svg>