<svg version="1" xmlns="http://www.w3.org/2000/svg" width="1200" height="392" viewBox="0 0 900.000000 294.000000"><path d="M546.6 12.7c-5.8 1-13.9 7.8-17.9 15-2.6 4.8-2.4 22.8.4 28.2 4.6 8.8 11.2 13.3 21.9 14.9 14.7 2.1 25.3-2.3 31.1-13 2-3.8 2.3-5.7 2.3-15.8l.1-11.5-3.8-5.2c-2.1-2.8-6.2-6.8-9.2-8.8-5-3.3-6.2-3.6-13.7-4-4.6-.2-9.6-.1-11.2.2zm279 0c-5.9.9-13.5 7.4-17.2 14.5-2 4-2.4 6.2-2.4 14.1 0 11.1 1.8 16.2 7.7 21.8 5.2 5 8.7 6.6 16.6 7.8 17.7 2.6 30-5.1 33.4-20.9 3-14.2-.4-23.9-11.2-32.1-7.1-5.3-15.2-6.9-26.9-5.2zm-764.9 17c-.9 1.1-1.7 2.9-1.7 4.2 0 1.2-.7 3.8-1.5 5.8-.8 1.9-1.5 4.4-1.5 5.5 0 1.1-.6 4.1-1.4 6.7C52.7 58 51.1 64.4 50 70c-.5 2.5-1.4 6.5-2 9-.7 2.5-1.8 7-2.5 10s-1.9 7.7-2.5 10.5c-.7 2.7-1.6 6.8-2 9-.7 3.8-1.4 6.8-4.1 18.2-.7 2.7-1.6 7-2 9.8-1 6.4-2.7 14.5-4.5 21.7-.8 3.2-1.4 7-1.4 8.5 0 5.2-1.2 7.4-5.1 9.3-2.1 1.1-5.3 2-7.2 2-2.1 0-4.1.7-5.2 2-1.6 1.8-1.7 3.4-1 19.2.5 12.6 1.1 18.1 2.4 20.6l1.6 3.5 22-.7c12.1-.4 30.1-1.3 40-1.9l18-1.2.3-11c.2-6.1 0-15.2-.3-20.3-.8-10.9-1.6-11.8-11.1-13l-5.9-.7-.3-4.1c-.5-6.9.6-7.4 17.3-7.4h14.4l1.5 2.9c.9 1.6 2.2 4.7 2.9 6.9 1.6 4.7 1.1 5.2-4.9 5.2-5.4 0-5.9 2.1-4.8 21.9.8 14.9 1.2 17.3 3 19.8l2.1 2.8 23.4-.1c22.8-.1 51.7-1.9 53.1-3.2 1.2-1.2 1.2-40.2 0-41.4-.6-.6-3.9-1.1-7.3-1.2-6-.1-6.4-.3-8.2-3.4-1.1-1.8-2.3-4.7-2.7-6.5-1.1-4.1-3-9.7-4.3-12.2-.6-1.1-1.4-3.3-1.8-5-.4-1.6-1.7-5.5-2.9-8.5s-2.5-6.9-3-8.5c-1.2-4.3-3.1-9.7-4.3-12-.6-1.1-1.4-3.3-1.8-5-.4-1.6-1.7-5.5-2.9-8.5s-2.5-6.9-3-8.5c-1.2-4.3-3.1-9.7-4.3-12-.6-1.1-1.4-3.3-1.8-5-.4-1.6-1.7-5.5-2.9-8.5s-2.5-6.9-3-8.5c-.5-1.7-1.8-5.5-3-8.5s-2.5-6.9-3-8.5c-.4-1.7-1.2-4.1-1.8-5.5-4.2-10.4-4.5-10.9-7.6-12.1-2-.8-11.9-1.4-28.1-1.7-23.7-.4-25.1-.3-26.8 1.5zM95 110.5c0 1.1.6 3 1.4 4.1.8 1.1 1.6 3.5 1.8 5.4l.3 3.5-6.2.3c-6.2.3-6.3.3-6.3-2.4 0-1.4.7-4.7 1.5-7.3.8-2.5 1.7-5.9 2-7.5l.6-2.9 2.5 2.3c1.3 1.3 2.4 3.3 2.4 4.5zm307.5-35.9c-2.7.7-6.8 1.4-9 1.4s-6.5.7-9.5 1.5-7.1 1.5-9 1.5c-1.9 0-6.2.8-9.5 1.8-5.6 1.7-6 2-6.3 5.1-.2 1.8.2 5.6.8 8.4.7 2.9 1.5 9.3 1.9 14.4.4 5 1.3 9.9 2.1 10.7.9 1.1 3 1.6 7 1.6 9.8 0 9-2.4 9 27.9 0 19.4-.3 27-1.2 27.9-.7.7-3.9 1.2-7.3 1.2-10 0-9.8-.4-9.4 20.7.3 13.3.8 18.4 1.8 19.7 1.2 1.4 5.9 1.6 47.6 1.6h46.3l.6-2.2c.3-1.3.6-9.6.6-18.5 0-12.9-.3-16.5-1.5-17.6-1.7-1.8-12.1-3.7-19.9-3.7-5.6 0-5.7 0-7.2-3.7-.9-2-1.8-7.8-2.1-12.9-.5-7.4-.2-10.2 1.3-14.5 2.5-7.4 6.7-12.5 12.1-14.9 7.8-3.4 12.3-2.4 23.2 5.4 5.4 3.8 7.5 3.1 14.1-5 3-3.7 6-7.2 6.5-7.8 2.6-2.9 8.4-10.6 11.3-14.9 4.9-7.4 4.5-10.4-2.4-16.5-3-2.7-7.2-5.8-9.2-6.8-2-1-4.3-2.3-5-2.8-4.4-3.1-12.1-4.5-24.8-4.6-13.7 0-17.8 1-26.6 6.7-2.6 1.6-2.7 1.6-4.7-.8-1.1-1.3-2-3.2-2.1-4.1 0-.9-.5-2-1.1-2.3-.5-.4-1.4-1.8-1.9-3.1-.8-2.1-1.5-2.4-6.2-2.3-2.9 0-7.5.7-10.3 1.5zm323.1 3.1c-6.1.2-11.6.9-12.3 1.5-.7.6-1.3 2.4-1.3 4 0 4-2.2 4.5-8.3 1.6-11-5.2-15-6-31.7-5.6-16 .4-17.6.7-28 5.7-15.8 7.6-27.2 23.1-30.1 41.1-2.9 17.3-2.9 20.1-.8 37 2.4 18.4 8.8 31.4 21.2 42.9 4.9 4.6 6.3 5.5 13.2 8.8 9.1 4.4 13.6 5.3 27 5.3 13.7 0 19.6-1.3 28-6 3.5-1.9 6.5-2.6 6.5-1.4 0 .3-.7 2.9-1.5 5.8-3.5 11.9-12.3 16.8-25.9 14.5-6.7-1.1-12.2-2.9-15.6-5-6.4-3.9-9.1-3.4-11.5 2.4-.9 2.3-2.3 5.5-3 7.2-.7 1.6-2 5-3 7.5-.9 2.5-2.3 5.8-3.1 7.3-.8 1.6-1.4 3.6-1.4 4.5 0 .9-.7 2.6-1.5 3.6-3.8 5.1.2 10.6 11.8 16.3 10.6 5.1 15.5 6.2 30.3 6.9 20.8.9 28.7-.4 42.3-7 6.4-3.1 19.5-15.1 22.5-20.6 4.9-8.9 7.7-16 10-25.2 1.8-7.6 2.2-39.7.6-57.8-.6-5.8-1.3-18.5-1.6-28.3-.7-16.9-.6-17.7 1.2-17.7 2-.1 11.1-3 13.2-4.4 2-1.2.6-42.6-1.6-44.4-1.6-1.2-15.7-1.3-45.6-.5zm-34.2 49.7c2.5 1.3 5.1 3.9 6.9 7.1 2.6 4.4 3 5.9 3 13 0 9.3-2.3 14.7-7.8 18.9-2.8 2.1-4.5 2.6-9.5 2.6-5.5 0-6.7-.4-10.2-3.1-4.9-4-8.8-12.2-8.8-18.9 0-6 3.9-15.1 7.7-17.7 4.3-3 10.6-5.2 12.8-4.6 1.1.3 3.8 1.5 5.9 2.7zM234.5 80.6c-3.3.7-8 1.3-10.5 1.4-2.5 0-7 .7-10 1.5s-7.3 1.5-9.5 1.5c-5.5.1-15.5 2.6-17.3 4.3-1.2 1.3-1.2 3.1-.3 11.6.6 5.6 1.1 14.3 1.1 19.4 0 5.1.4 9.9 1 10.7.6 1 3.5 1.6 9.7 2l8.8.5.3 51.7c.3 58.9 1.3 53-9.3 54.3-3.3.4-7.1 1.2-8.4 1.7l-2.4.9.6 18c.4 15.3.8 18.3 2.3 20 1.6 1.8 3.5 1.9 48.6 1.9 30.4 0 47.6-.4 48.9-1 1.8-1 1.9-2.3 1.9-19.5 0-18-.1-18.5-2.2-19.9-2.6-1.6-11.9-3.5-19.3-3.9l-5-.2-.3-8.8c-.3-9.6.1-10.1 5.6-7.3 4.7 2.4 21.5 3.5 32.7 2.1 9.8-1.1 11.4-1.6 20.4-5.8 6.8-3.1 18.1-14.4 21.7-21.9 4.9-9.9 6.4-13.7 6.4-16.6.1-1.5.7-5.4 1.5-8.7 2.8-11.6 1.2-36.2-3.2-48-4.1-11.1-8-17.2-15.8-25.1-6.3-6.4-9.6-8.9-15.8-11.7-4.3-2.1-8.5-3.7-9.5-3.7-.9 0-3.9-.7-6.6-1.5-6.5-2-17.3-1.9-26.6.1-7.6 1.7-15.5 4.8-16.6 6.5-1 1.7-2.2.9-4.5-2.9-1.3-2-2.8-4-3.3-4.4-1.6-1.1-8.3-.8-15.1.8zm56.5 49.6c5.6 4.3 7.3 9 7.7 21.2.4 7.7.1 11-1.3 14.5-2 5.4-4.4 9-6 9.1-.6 0-1.7.7-2.4 1.5-1.7 2-6.9 1.9-10.2-.3-2.9-1.9-6.8-6.5-6.8-8 0-.5-.7-2.3-1.5-3.8-2.1-4-2.1-22.2 0-25 .8-1 1.5-2.6 1.5-3.5 0-3 8.3-8.8 12.7-8.9 1.2 0 4 1.5 6.3 3.2zm228.5-40c-5.5.5-10.6 1.4-11.3 2.1-1 .8-1.3 2.6-.8 6.7.3 3 1 10.6 1.6 16.7.5 6.7 1.6 12.6 2.6 14.4l1.6 3.2 8.4-.6c5.5-.3 8.9-.1 9.9.7 1.4 1 1.6 4 1.3 23.4-.2 18.5-.6 22.4-1.8 23.2-.8.5-5.4 1-10.2 1-12.3 0-12.2-.2-11.5 17.5.3 7.7 1.1 15.7 1.7 17.8l1.1 3.7H607l.8-2.3c.4-1.2.6-9.3.4-17.9l-.4-15.7-3.9-1.5c-2.2-.9-6.3-1.6-9.2-1.6-2.9 0-5.8-.5-6.5-1.2-.9-.9-1.2-11.9-1.2-43.3 0-32.2-.3-42.5-1.2-43.7-2.8-3.3-41.7-4.9-66.3-2.6zm279 0c-5.5.5-10.6 1.4-11.3 2.1-1 .8-1.2 2.5-.8 6.2.3 2.7 1 10 1.6 16.2.5 6.2 1.6 12.9 2.5 14.9l1.5 3.7 8.3-.5c4.6-.3 9.1-.1 10 .4 1.5.8 1.7 3.4 1.7 22.8 0 18.5-.2 22.1-1.6 23.4-1.2 1.2-3.7 1.6-10.4 1.6-11.5 0-12 .4-12 11.5 0 7.7 1.4 21.7 2.6 25.7.5 1.7 3.7 1.8 48.4 1.8h47.9l.6-3.3c.3-1.7.2-9.9-.2-18.1l-.8-14.9-3.5-1.3c-1.9-.7-6-1.3-9.1-1.3-3-.1-6-.6-6.7-1.3-.9-.9-1.2-12-1.2-43.9 0-32.9-.3-42.9-1.2-43.6-3.7-2.9-44.2-4.1-66.3-2.1z" fill="#5595db"/></svg>